<svg width="374" height="94" viewBox="0 0 374 94" fill="none" xmlns="http://www.w3.org/2000/svg">
<path d="M0.96 94V0.559998H61.12V18.48H19.904V39.216H57.792V57.136H20.16V94H0.96ZM80.91 94V0.559998H100.11V76.08H137.87V94H80.91ZM155.74 94V77.36H174.3V17.2H155.74V0.559998H212.06V17.2H193.5V77.36H212.06V94H155.74ZM224.81 94L249.898 45.744L226.474 0.559998H247.594L257.322 21.04C258.261 22.9173 259.029 24.624 259.626 26.16C260.309 27.696 260.735 28.8053 260.906 29.488C261.077 28.8053 261.461 27.696 262.058 26.16C262.655 24.624 263.381 22.9173 264.234 21.04L274.218 0.559998H294.826L271.402 45.744L296.49 94H275.37L264.106 70.96C263.253 69.0827 262.485 67.3333 261.802 65.712C261.119 64.0907 260.607 62.8533 260.266 62C260.01 62.8533 259.583 64.0907 258.986 65.712C258.389 67.3333 257.621 69.0827 256.682 70.96L245.418 94H224.81ZM327.8 94V60.72L300.92 0.559998H321.016L332.792 28.72C333.987 31.536 335.011 34.5227 335.864 37.68C336.803 40.8373 337.443 43.3973 337.784 45.36C338.211 43.3973 338.808 40.8373 339.576 37.68C340.429 34.5227 341.411 31.536 342.52 28.72L353.912 0.559998H373.88L347 60.72V94H327.8Z" fill="white"/>
</svg>
