<svg width="301" height="446" viewBox="0 0 301 446" fill="none" xmlns="http://www.w3.org/2000/svg">
<rect width="301" height="446" fill="white"/>
<path d="M50.9 258V206.9H83.8V216.7H61.26V228.04H81.98V237.84H61.4V258H50.9ZM94.6227 258V206.9H105.123V248.2H125.773V258H94.6227ZM135.545 258V248.9H145.695V216H135.545V206.9H166.345V216H156.195V248.9H166.345V258H135.545ZM173.318 258L187.038 231.61L174.228 206.9H185.778L191.098 218.1C191.611 219.127 192.031 220.06 192.358 220.9C192.731 221.74 192.965 222.347 193.058 222.72C193.151 222.347 193.361 221.74 193.688 220.9C194.015 220.06 194.411 219.127 194.878 218.1L200.338 206.9H211.608L198.798 231.61L212.518 258H200.968L194.808 245.4C194.341 244.373 193.921 243.417 193.548 242.53C193.175 241.643 192.895 240.967 192.708 240.5C192.568 240.967 192.335 241.643 192.008 242.53C191.681 243.417 191.261 244.373 190.748 245.4L184.588 258H173.318ZM229.641 258V239.8L214.941 206.9H225.931L232.371 222.3C233.024 223.84 233.584 225.473 234.051 227.2C234.564 228.927 234.914 230.327 235.101 231.4C235.334 230.327 235.661 228.927 236.081 227.2C236.547 225.473 237.084 223.84 237.691 222.3L243.921 206.9H254.841L240.141 239.8V258H229.641Z" fill="#C1121F"/>
</svg>
